<!-- Generated by IcoMoon.io -->
<svg version="1.1" xmlns="http://www.w3.org/2000/svg" width="64" height="32" viewBox="0 0 64 32">
<title>astronaut</title>
<path fill="#2196f3" d="M14.921 2.111c-0.030-0.089-0.106-0.155-0.199-0.169l-0.001-0-0.892-0.13-0.399-0.808c-0.083-0.17-0.363-0.17-0.446 0l-0.399 0.808-0.892 0.13c-0.121 0.018-0.213 0.121-0.213 0.246 0 0.070 0.029 0.133 0.075 0.178l0.646 0.629-0.152 0.888c-0.016 0.093 0.022 0.188 0.099 0.244 0.077 0.056 0.179 0.063 0.262 0.019l0.797-0.419 0.797 0.419c0.034 0.018 0.073 0.028 0.116 0.028 0.138 0 0.249-0.112 0.249-0.249 0-0.015-0.001-0.029-0.004-0.043l0 0.002-0.152-0.888 0.645-0.629c0.046-0.045 0.075-0.109 0.075-0.178 0-0.027-0.004-0.054-0.013-0.079l0.001 0.002zM13.772 2.731c-0.059 0.057-0.085 0.14-0.071 0.22l0.089 0.52-0.467-0.245c-0.034-0.018-0.074-0.029-0.116-0.029s-0.082 0.011-0.117 0.029l0.001-0.001-0.467 0.245 0.089-0.52c0.002-0.013 0.004-0.027 0.004-0.042 0-0.070-0.029-0.133-0.075-0.178l-0-0-0.378-0.368 0.522-0.076c0.081-0.012 0.151-0.063 0.188-0.136l0.233-0.473 0.233 0.473c0.036 0.074 0.106 0.125 0.188 0.136l0.522 0.076-0.378 0.368zM12.196 9.577h-0.498v0.498h0.498v-0.498zM12.196 10.573h-0.498v0.498h0.498v-0.498zM12.693 10.075h-0.498v0.498h0.498v-0.498zM11.698 10.075h-0.498v0.498h0.498v-0.498zM10.453 12.315h-0.498v0.498h0.498v-0.498zM10.453 13.31h-0.498v0.498h0.498v-0.498zM10.951 12.813h-0.498v0.498h0.498v-0.498zM9.956 12.813h-0.498v0.498h0.498v-0.498zM7.467 11.319h-0.498v0.498h0.498v-0.498zM7.467 12.315h-0.498v0.498h0.498v-0.498zM7.964 11.817h-0.498v0.498h0.498v-0.498zM6.969 11.817h-0.498v0.498h0.498v-0.498zM2.738 2.857h-0.498v0.498h0.498v-0.498zM2.738 3.853h-0.498v0.498h0.498v-0.498zM3.235 3.355h-0.498v0.498h0.498v-0.498zM2.24 3.355h-0.498v0.498h0.498v-0.498z"></path>
<path fill="#212121" d="M11.533 6.608c-0.131-0.176-0.326-0.297-0.55-0.328l-0.004-0c-0.036-0.005-0.077-0.008-0.118-0.008-0.192 0-0.368 0.065-0.508 0.174l0.002-0.001-0.585 0.448-0.886 0.661-0.634-0.253c1.13-0.507 1.92-1.637 1.92-2.949 0-1.784-1.457-3.236-3.248-3.236s-3.249 1.452-3.249 3.236c0 0.647 0.193 1.248 0.523 1.754l-1.292-0.011c-0.004 0-0.007 0.002-0.011 0.002-0.026 0.001-0.051 0.007-0.074 0.015l0.002-0.001c-0.006 0.002-0.012 0.003-0.018 0.006-0.003 0.001-0.006 0.002-0.009 0.003l-1.509 0.745c-0 0-0.001 0-0.001 0l-0.883 0.425c-0.011 0.005-0.021 0.011-0.030 0.017l0.001-0c-0.225 0.151-0.371 0.404-0.371 0.692 0 0.139 0.034 0.269 0.094 0.384l-0.002-0.005c0.102 0.198 0.276 0.346 0.487 0.413l0.006 0.002c0.075 0.025 0.161 0.039 0.251 0.039 0.144 0 0.279-0.037 0.397-0.101l-0.004 0.002 0.648-0.344 1.056-0.546 0.633-0.004-2.54 2.527c0 0-0 0-0.001 0.001l-0.625 0.622c-0.141 0.14-0.229 0.333-0.229 0.548 0 0.001 0 0.002 0 0.002v-0c0.001 0.429 0.349 0.777 0.778 0.777 0 0 0.001 0 0.001 0h-0c0.2 0 0.399-0.076 0.551-0.227l0.613-0.611 0.812-0.607 0.42 0.419-1.447 1.441c-0.141 0.14-0.229 0.333-0.229 0.548 0 0.001 0 0.001 0 0.002v-0c0 0.208 0.081 0.403 0.229 0.55 0.141 0.14 0.335 0.226 0.549 0.226 0.001 0 0.001 0 0.002 0h-0c0.199 0 0.399-0.076 0.551-0.226l2.095-2.087c0.003-0.003 0.007-0.004 0.010-0.007l2.411-2.64 1.62 0.23c0.012 0.002 0.023 0.003 0.035 0.003 0.030 0 0.059-0.007 0.087-0.018 0.008-0.003 0.015-0.007 0.023-0.011 0.009-0.004 0.018-0.007 0.027-0.013l1.5-0.995c0.006-0.004 0.009-0.010 0.014-0.014s0.013-0.007 0.019-0.012l0.593-0.556c0.162-0.152 0.263-0.367 0.263-0.607 0-0.187-0.062-0.359-0.166-0.498l0.002 0.002zM0.994 8.293c-0.046 0.025-0.1 0.040-0.158 0.040-0.036 0-0.072-0.006-0.104-0.017l0.002 0.001c-0.137-0.043-0.235-0.17-0.235-0.319 0-0.11 0.053-0.207 0.135-0.268l0.001-0.001 0.613-0.295 0.148 0.431 0.062 0.181-0.463 0.246zM2.626 7.44l-0.723 0.373-0.119-0.348-0.086-0.25 0.946-0.467-0.019 0.692zM9.673 4.35c0 0.429-0.102 0.833-0.279 1.194l-1.951-0.886c-0.020-0.268-0.16-0.5-0.365-0.646l-0.003-0.002 0.683-2.268c1.109 0.353 1.915 1.388 1.915 2.608zM4.171 4.35c0-1.51 1.234-2.738 2.751-2.738 0.118 0 0.233 0.010 0.348 0.025l-0.668 2.218c-0.009 0-0.017-0.003-0.027-0.003-0 0-0 0-0 0-0.482 0-0.872 0.39-0.873 0.871v0c0.001 0.481 0.392 0.871 0.874 0.871 0 0 0 0 0 0v0c0.324 0 0.604-0.179 0.755-0.441l1.803 0.819c-0.502 0.675-1.304 1.115-2.211 1.115-1.517 0-2.751-1.228-2.751-2.738zM6.951 4.724c0 0.206-0.169 0.373-0.376 0.373-0 0-0 0-0.001 0-0.207 0-0.374-0.167-0.375-0.373v-0c0-0.206 0.169-0.373 0.376-0.373s0.376 0.167 0.376 0.373zM1.15 11.735c-0.051 0.051-0.122 0.082-0.2 0.082s-0.148-0.031-0.199-0.082l0 0c-0.051-0.050-0.082-0.12-0.082-0.197s0.031-0.147 0.082-0.197l0-0 0.449-0.447 0.398 0.396-0.447 0.446zM2.65 13.477c-0.051 0.051-0.122 0.082-0.2 0.082s-0.148-0.031-0.199-0.082l0 0c-0.051-0.050-0.082-0.12-0.082-0.197s0.031-0.147 0.082-0.197l0-0 0.449-0.448 0.397 0.396-0.448 0.446zM4.275 11.858l-0.001 0.001-0.823 0.821-0.398-0.396 0.824-0.82c0.019-0.019 0.030-0.041 0.042-0.063 0.003-0.006 0.009-0.012 0.012-0.019 0.008-0.019 0.009-0.040 0.012-0.060 0.002-0.012 0.006-0.022 0.006-0.034 0-0.016-0.006-0.033-0.009-0.049-0.003-0.015-0.003-0.030-0.009-0.045-0.011-0.025-0.026-0.046-0.043-0.064l0 0c-0.005-0.006-0.006-0.013-0.012-0.018h-0s0-0.001-0-0.001l-0.75-0.747c-0.008-0.008-0.018-0.011-0.027-0.018-0.012-0.010-0.025-0.019-0.039-0.026l-0.001-0.001c-0.012-0.006-0.027-0.011-0.042-0.015l-0.002-0c-0.014-0.004-0.030-0.008-0.047-0.009l-0.001-0c-0.003-0-0.007-0-0.011-0-0.012 0-0.024 0.001-0.035 0.003l0.001-0c-0.017 0.002-0.032 0.004-0.048 0.010s-0.031 0.013-0.045 0.021l0.001-0.001c-0.009 0.005-0.020 0.007-0.028 0.013l-0.828 0.618-0.42-0.419 1.12-1.114 2.035 2.002-0.433 0.429zM7.457 8.584c-0.007-0.001-0.014 0.002-0.021 0.001-0.004-0-0.008-0-0.012-0-0.015 0-0.029 0.001-0.043 0.004l0.001-0c-0.032 0.005-0.061 0.016-0.087 0.033l0.001-0.001c-0.015 0.009-0.027 0.018-0.039 0.029l0-0c-0.006 0.005-0.013 0.008-0.019 0.014l-2.192 2.401-2.020-1.986 1.322-1.315c0.045-0.045 0.073-0.107 0.073-0.176 0-0.138-0.112-0.249-0.249-0.249-0 0-0 0-0.001 0h0l-1.036 0.006 0.013-0.75 1.449 0.012c0.59 0.605 1.413 0.98 2.323 0.98 0 0 0.001 0 0.002 0h-0c0.204 0 0.403-0.021 0.597-0.057 0.019 0.015 0.037 0.030 0.060 0.039l1.125 0.448 0.071 0.354 0.083 0.413-1.401-0.199zM9.343 8.667l-0.146-0.727 0.675-0.504 0.442 0.587-0.971 0.644zM11.094 7.346l-0.391 0.367-0.435-0.577 0.388-0.297c0.073-0.056 0.164-0.078 0.253-0.067 0.090 0.013 0.17 0.060 0.224 0.133 0.041 0.055 0.066 0.124 0.066 0.199 0 0.096-0.041 0.182-0.105 0.243l-0 0z"></path>
<path fill="#212121" d="M6.348 8.654l-1-0.996c-0.045-0.045-0.107-0.073-0.176-0.073s-0.131 0.028-0.176 0.073l-1 0.996c-0.045 0.045-0.073 0.108-0.073 0.176s0.028 0.131 0.073 0.176v0l1 0.996c0.045 0.045 0.107 0.073 0.176 0.073s0.131-0.028 0.176-0.073v0l1-0.996c0.045-0.045 0.073-0.107 0.073-0.176s-0.028-0.131-0.073-0.176v0zM5.172 9.475l-0.647-0.644 0.647-0.644 0.647 0.644-0.647 0.644zM8.010 2.366l-0.12 0.483c0.033 0.008 0.811 0.211 0.811 1.003h0.498c0-0.941-0.777-1.384-1.188-1.486zM9.198 4.35h-0.498v0.498h0.498v-0.498z"></path>
</svg>
