<!-- Generated by IcoMoon.io -->
<svg version="1.1" xmlns="http://www.w3.org/2000/svg" width="64" height="32" viewBox="0 0 64 32">
<title>brand</title>
<path fill="#afb1b8" d="M0.957 8.379c0.049 0.061 0.075 0.137 0.074 0.215 0 0.005 0 0.011 0 0.017 0 0.102-0.044 0.193-0.114 0.255l-0 0c-0.095 0.072-0.213 0.108-0.333 0.099h-0.584v-1.366h0.572c0.010-0.001 0.021-0.001 0.032-0.001 0.107 0 0.206 0.034 0.286 0.093l-0.001-0.001c0.068 0.058 0.111 0.143 0.111 0.239 0 0.006-0 0.012-0 0.017l0-0.001c0.003 0.075-0.020 0.149-0.066 0.209-0.045 0.054-0.106 0.092-0.174 0.107 0.077 0.014 0.148 0.055 0.198 0.117zM0.272 8.173h0.244c0.056 0.004 0.111-0.012 0.156-0.045 0.033-0.030 0.053-0.073 0.053-0.12 0-0.005-0-0.009-0.001-0.014l0 0.001c0-0.003 0-0.007 0-0.012 0-0.048-0.020-0.091-0.052-0.122l-0-0c-0.039-0.029-0.088-0.047-0.141-0.047-0.007 0-0.013 0-0.020 0.001l0.001-0h-0.24v0.358zM0.696 8.697c0.036-0.031 0.058-0.077 0.058-0.128 0-0.004-0-0.008-0-0.011l0 0.001c0-0.003 0-0.006 0-0.010 0-0.052-0.023-0.099-0.059-0.13l-0-0c-0.041-0.031-0.094-0.050-0.15-0.050-0.006 0-0.011 0-0.017 0.001l0.001-0h-0.256v0.376h0.26c0.058 0.003 0.116-0.013 0.164-0.047zM2.128 8.967l-0.319-0.534h-0.12v0.534h-0.274v-1.366h0.518c0.011-0.001 0.023-0.001 0.036-0.001 0.124 0 0.238 0.044 0.326 0.118l-0.001-0.001c0.077 0.079 0.124 0.186 0.124 0.305 0 0.098-0.032 0.188-0.087 0.261l0.001-0.001c-0.064 0.074-0.151 0.123-0.247 0.139l0.339 0.546h-0.298zM1.689 8.246h0.224c0.156 0 0.233-0.069 0.233-0.207 0-0.003 0-0.008 0-0.012 0-0.055-0.022-0.105-0.058-0.142l0 0c-0.042-0.035-0.096-0.056-0.155-0.056-0.007 0-0.015 0-0.022 0.001l0.001-0h-0.227l0.003 0.416zM3.625 8.692h-0.546l-0.096 0.275h-0.287l0.501-1.351h0.31l0.499 1.351h-0.287l-0.094-0.275zM3.552 8.485l-0.199-0.577-0.199 0.577h0.399zM5.499 8.967h-0.272l-0.61-0.929v0.929h-0.271v-1.366h0.271l0.61 0.934v-0.934h0.272v1.366zM7.051 8.64c-0.057 0.103-0.141 0.186-0.243 0.24l-0.003 0.002c-0.118 0.060-0.25 0.090-0.382 0.086h-0.484v-1.366h0.484c0.006-0 0.014-0 0.021-0 0.132 0 0.256 0.031 0.366 0.087l-0.005-0.002c0.104 0.052 0.19 0.136 0.246 0.238 0.054 0.104 0.085 0.228 0.085 0.358s-0.031 0.254-0.087 0.363l0.002-0.005zM6.739 8.607c0.075-0.087 0.12-0.201 0.12-0.326s-0.046-0.239-0.121-0.327l0.001 0.001c-0.083-0.073-0.192-0.117-0.311-0.117-0.010 0-0.021 0-0.031 0.001l0.001-0h-0.189v0.884h0.189c0.009 0.001 0.019 0.001 0.029 0.001 0.119 0 0.228-0.044 0.311-0.117l-0.001 0zM3.795 0s3.51 1.33 3.436 3.255v3.256s-3.507-1.331-3.434-3.256l-0.002-3.255zM10.357 5.749c0.628-0.439 1.387-0.735 2.209-0.823l0.021-0.002v-1.019c-0.938 0.37-1.704 1.011-2.219 1.826l-0.011 0.019z"></path>
<path fill="#afb1b8" d="M9.958 6.056c0.548-1.093 1.471-1.93 2.595-2.354l0.033-0.011v-2.937s-4.998 1.895-4.893 4.636v4.636s0.223-0.085 0.573-0.244c0-0.148 0-0.298 0.016-0.448 0.11-1.318 0.734-2.471 1.669-3.273l0.007-0.005z"></path>
<path fill="#afb1b8" d="M9.483 7.779c0.026-0.322 0.085-0.64 0.175-0.949-0.639 0.752-1.035 1.728-1.058 2.795l-0 0.005c0.407-0.196 0.722-0.365 1.030-0.546l-0.068 0.037c-0.060-0.285-0.094-0.612-0.094-0.947 0-0.139 0.006-0.277 0.018-0.414l-0.001 0.018zM9.682 7.795c-0.010 0.113-0.015 0.244-0.015 0.376 0 0.297 0.028 0.587 0.082 0.869l-0.005-0.029c1.366-0.82 2.9-2.088 2.841-3.62v-0.134c-1.017 0.118-1.914 0.56-2.6 1.22l0.001-0.001c-0.157 0.387-0.265 0.835-0.303 1.303l-0.001 0.016z"></path>
</svg>
