<!-- Generated by IcoMoon.io -->
<svg version="1.1" xmlns="http://www.w3.org/2000/svg" width="64" height="32" viewBox="0 0 64 32">
<title>clock</title>
<path fill="#212121" d="M14.605 7.14c-0.001-3.944-3.199-7.141-7.144-7.14s-7.141 3.199-7.14 7.144c0.001 3.168 2.063 5.853 4.919 6.788l0.051 0.014c0.028 0.009 0.058 0.013 0.087 0.013 0.056 0 0.111-0.015 0.16-0.044 0.063-0.037 0.11-0.097 0.132-0.166l1.804-5.717c0.492-0.002 0.89-0.401 0.89-0.893 0-0.493-0.4-0.893-0.893-0.893-0.141 0-0.275 0.033-0.394 0.091l0.005-0.002-2.383-2.383c-0.053-0.052-0.126-0.083-0.207-0.083-0.164 0-0.298 0.133-0.298 0.298 0 0.080 0.032 0.153 0.083 0.207l-0-0 2.381 2.384c-0.056 0.112-0.089 0.245-0.089 0.385 0 0.281 0.132 0.531 0.338 0.691l0.002 0.001-1.719 5.447c-3.396-1.251-5.135-5.019-3.884-8.415s5.018-5.135 8.415-3.884c3.396 1.251 5.135 5.018 3.884 8.415-0.628 1.671-1.868 2.99-3.441 3.704l-0.041 0.017-0.186-0.875c-0.029-0.136-0.149-0.236-0.291-0.236-0.076 0-0.146 0.029-0.198 0.076l0-0-1.79 1.599c-0.061 0.055-0.1 0.134-0.1 0.222 0 0.132 0.086 0.244 0.206 0.283l0.002 0.001 2.286 0.73c0.027 0.009 0.059 0.014 0.091 0.014 0.164 0 0.297-0.133 0.297-0.297 0-0.022-0.002-0.044-0.007-0.064l0 0.002-0.182-0.858c2.58-1.108 4.353-3.627 4.353-6.56 0-0.005 0-0.011-0-0.016v0.001zM7.463 6.843c0.164 0 0.298 0.133 0.298 0.298s-0.133 0.298-0.298 0.298v0c-0.164 0-0.298-0.133-0.298-0.298s0.133-0.298 0.298-0.298v0zM8.443 13.78l1.019-0.909 0.281 1.325-1.301-0.416z"></path>
<path fill="#2196f3" d="M7.165 1.486v0.595c0 0.164 0.133 0.298 0.298 0.298s0.298-0.133 0.298-0.298v0-0.595c0-0.164-0.133-0.298-0.298-0.298s-0.298 0.133-0.298 0.298v0zM1.809 6.843c-0.164 0-0.298 0.133-0.298 0.298s0.133 0.298 0.298 0.298h0.595c0.164 0 0.298-0.133 0.298-0.298s-0.133-0.298-0.298-0.298h-0.595zM13.117 7.438c0.164 0 0.298-0.133 0.298-0.298s-0.133-0.298-0.298-0.298h-0.595c-0.164 0-0.298 0.133-0.298 0.298s0.133 0.298 0.298 0.298h0.595z"></path>
</svg>
