<!-- Generated by IcoMoon.io -->
<svg version="1.1" xmlns="http://www.w3.org/2000/svg" width="64" height="32" viewBox="0 0 64 32">
<title>email</title>
<path fill="#757575" d="M3.093 0h-2.773c-0.176 0-0.32 0.144-0.32 0.32v1.92c0 0.176 0.144 0.32 0.32 0.32h2.773c0.176 0 0.32-0.144 0.32-0.32v-1.92c0-0.176-0.144-0.32-0.32-0.32zM3.093 0.213c0.014 0 0.028 0.003 0.041 0.008l-1.428 1.237-1.428-1.237c0.012-0.005 0.026-0.008 0.041-0.008v0h2.773zM3.093 2.347h-2.773c-0.059 0-0.107-0.048-0.107-0.107v0-1.793l1.423 1.234c0.019 0.016 0.043 0.026 0.070 0.026s0.051-0.010 0.070-0.026l-0 0 1.423-1.234v1.793c0 0.059-0.048 0.107-0.107 0.107v0z"></path>
</svg>
