<!-- Generated by IcoMoon.io -->
<svg version="1.1" xmlns="http://www.w3.org/2000/svg" width="64" height="32" viewBox="0 0 64 32">
<title>logo_ya_co</title>
<path fill="#afb1b8" d="M1.28 0l1.559 1.476h4.349v4.117l1.559 1.476v-7.069h-7.467z"></path>
<path fill="#afb1b8" d="M0 1.414v6.867h7.253v-2.729l-4.368-4.136-2.885-0.002zM5.872 7.276h-4.724v-4.618h0.334v4.306h4.39v0.313zM2.089 9.554l0.175-0.359h0.146l-0.255 0.479v0.279h-0.132v-0.279l-0.254-0.479h0.146l0.175 0.359zM2.838 9.776h-0.294l-0.061 0.177h-0.137l0.286-0.758h0.118l0.287 0.758h-0.138l-0.062-0.177zM2.581 9.67h0.22l-0.11-0.315-0.11 0.315zM3.357 9.748c0-0.035 0.010-0.067 0.029-0.096s0.057-0.064 0.113-0.105c-0.023-0.028-0.044-0.059-0.061-0.092l-0.001-0.003c-0.010-0.022-0.017-0.048-0.017-0.075v-0c0-0.060 0.018-0.106 0.054-0.141s0.085-0.052 0.146-0.052c0.055 0 0.1 0.016 0.135 0.049s0.053 0.073 0.053 0.12c0 0 0 0.001 0 0.001 0 0.032-0.009 0.062-0.025 0.087l0-0.001c-0.021 0.032-0.047 0.058-0.078 0.079l-0.001 0.001-0.052 0.038 0.147 0.173c0.021-0.042 0.032-0.088 0.032-0.139h0.11c0 0.093-0.022 0.17-0.066 0.23l0.111 0.132h-0.147l-0.043-0.051c-0.051 0.038-0.116 0.061-0.186 0.061-0.003 0-0.006-0-0.008-0h0c-0.075 0-0.135-0.020-0.18-0.060-0.041-0.037-0.067-0.090-0.067-0.149 0-0.002 0-0.005 0-0.007v0zM3.608 9.862c0.043 0 0.083-0.014 0.12-0.043l-0.166-0.195-0.016 0.012c-0.042 0.032-0.063 0.068-0.063 0.108 0 0.035 0.011 0.064 0.034 0.085 0.022 0.020 0.052 0.033 0.085 0.033 0.002 0 0.004-0 0.006-0h-0zM3.538 9.374c0 0.029 0.018 0.066 0.054 0.11l0.058-0.039 0.016-0.013c0.020-0.017 0.032-0.043 0.032-0.071 0-0.001 0-0.002-0-0.003v0c0-0 0-0 0-0.001 0-0.020-0.009-0.037-0.022-0.050l-0-0c-0.014-0.013-0.033-0.021-0.054-0.021-0.001 0-0.002 0-0.003 0h0c-0.001-0-0.002-0-0.003-0-0.022 0-0.042 0.010-0.056 0.025l-0 0c-0.014 0.016-0.022 0.037-0.022 0.060 0 0.001 0 0.002 0 0.003v-0zM4.916 9.706c-0.008 0.081-0.038 0.144-0.090 0.189s-0.121 0.068-0.208 0.068c-0.060 0-0.114-0.014-0.16-0.043-0.046-0.030-0.083-0.071-0.106-0.121l-0.001-0.002c-0.025-0.053-0.039-0.116-0.039-0.181 0-0.001 0-0.002 0-0.003v0-0.071c0-0.071 0.013-0.134 0.038-0.189s0.062-0.097 0.109-0.126c0.048-0.030 0.102-0.044 0.165-0.044 0.084 0 0.151 0.023 0.202 0.068s0.081 0.11 0.089 0.193h-0.131c-0.006-0.054-0.022-0.094-0.048-0.118s-0.063-0.036-0.112-0.036c-0.057 0-0.101 0.021-0.132 0.063s-0.046 0.103-0.047 0.184v0.067c0 0.082 0.015 0.144 0.044 0.188s0.073 0.065 0.129 0.065c0.052 0 0.091-0.012 0.117-0.035s0.043-0.062 0.050-0.116h0.131zM5.639 9.593c0 0.074-0.013 0.14-0.038 0.196s-0.063 0.099-0.111 0.129c-0.048 0.030-0.102 0.045-0.165 0.045s-0.116-0.015-0.164-0.045c-0.049-0.031-0.087-0.075-0.111-0.127l-0.001-0.002c-0.025-0.054-0.040-0.118-0.040-0.185 0-0.002 0-0.005 0-0.008v0-0.043c0-0.074 0.013-0.139 0.039-0.196s0.063-0.1 0.111-0.13c0.048-0.030 0.103-0.045 0.164-0.045s0.117 0.015 0.164 0.045c0.048 0.030 0.085 0.072 0.111 0.128s0.039 0.121 0.039 0.195v0.042zM5.507 9.554c0-0.084-0.016-0.148-0.048-0.193-0.028-0.041-0.075-0.067-0.128-0.067-0.002 0-0.005 0-0.007 0h0c-0.002-0-0.004-0-0.005-0-0.053 0-0.1 0.026-0.128 0.067l-0 0.001c-0.032 0.044-0.048 0.108-0.049 0.189v0.044c0 0.083 0.016 0.148 0.049 0.193s0.078 0.068 0.135 0.068c0.058 0 0.103-0.022 0.134-0.067s0.047-0.109 0.047-0.195v-0.039z"></path>
</svg>
