<!-- Generated by IcoMoon.io -->
<svg version="1.1" xmlns="http://www.w3.org/2000/svg" width="64" height="32" viewBox="0 0 64 32">
<title>logo_company</title>
<path fill="#afb1b8" d="M3.622 0.626h0.029c0.054 0 0.112 0.005 0.17 0.010 0.254 0.018 0.507 0.056 0.756 0.114v-0.611c-0.226-0.060-0.492-0.104-0.765-0.124l-0.015-0.001c-0.088-0.007-0.198-0.012-0.308-0.015l-0.007-0h-0.091c-0.528 0.002-1.054 0.070-1.565 0.202-0.582 0.145-1.142 0.373-1.661 0.675v6.058c0.455-0.253 0.982-0.464 1.536-0.607l0.047-0.010c0.389-0.104 0.844-0.177 1.31-0.203l0.018-0.001h0.018c0.075-0.004 0.15-0.006 0.227-0.006v-0.621c-0.617 0.008-1.211 0.091-1.778 0.241l0.051-0.011c-0.209 0.054-0.411 0.113-0.6 0.178l-0.216 0.073v-4.724l0.092-0.044c0.655-0.318 1.42-0.524 2.227-0.572l0.016-0.001c0.003-0 0.006-0 0.010-0s0.007 0 0.010 0l-0-0c0.086-0.004 0.172-0.006 0.257-0.006h0.097c0.045 0.001 0.090 0.002 0.134 0.005z"></path>
<path fill="#afb1b8" d="M5.143 1.266c-0.002 0-0.004 0-0.005 0-0.317 0-0.628-0.027-0.93-0.078l0.033 0.005c-0.096-0.016-0.191-0.036-0.282-0.057v5.989c0.388 0.096 0.787 0.143 1.187 0.14 0.557-0.002 1.096-0.076 1.61-0.211l-0.045 0.010c0.63-0.16 1.183-0.391 1.691-0.692l-0.030 0.016v-5.95c-0.455 0.252-0.981 0.464-1.535 0.607l-0.047 0.010c-0.538 0.138-1.091 0.209-1.645 0.211zM7.538 1.369l0.216-0.073v4.725l-0.092 0.045c-0.313 0.153-0.68 0.289-1.063 0.388l-0.041 0.009c-0.461 0.119-0.936 0.181-1.412 0.183-0.143 0-0.284-0.006-0.421-0.018l-0.148-0.013v-4.859l0.172 0.012c0.125 0.008 0.255 0.012 0.396 0.012 0.638-0.002 1.256-0.086 1.844-0.241l-0.051 0.011c0.201-0.053 0.402-0.113 0.6-0.18zM0.584 9.005c-0.058-0.060-0.139-0.097-0.229-0.097-0.004 0-0.008 0-0.012 0l0.001-0c-0.001-0-0.003-0-0.005-0-0.048 0-0.094 0.010-0.136 0.027l0.002-0.001c-0.082 0.033-0.146 0.097-0.177 0.178l-0.001 0.002c-0.017 0.043-0.025 0.088-0.025 0.134v0.809c-0.002 0.057 0.009 0.114 0.032 0.166 0.019 0.042 0.047 0.079 0.081 0.109 0.032 0.027 0.070 0.047 0.111 0.058 0.039 0.011 0.080 0.017 0.121 0.017 0.045 0 0.090-0.009 0.131-0.028 0.121-0.054 0.205-0.174 0.205-0.313v0-0.090h-0.212v0.072c0 0.001 0 0.003 0 0.005 0 0.024-0.005 0.047-0.013 0.069l0-0.001c-0.007 0.018-0.018 0.033-0.031 0.046l-0 0c-0.024 0.019-0.055 0.030-0.088 0.031h-0c-0.004 0-0.008 0.001-0.012 0.001-0.036 0-0.067-0.017-0.087-0.044l-0-0c-0.018-0.029-0.028-0.063-0.028-0.1 0-0.003 0-0.006 0-0.008v0-0.755c-0.001-0.042 0.008-0.083 0.026-0.121 0.020-0.030 0.053-0.050 0.091-0.050 0.004 0 0.009 0 0.013 0.001l-0.001-0c0.001-0 0.003-0 0.004-0 0.037 0 0.070 0.018 0.090 0.045l0 0c0.022 0.029 0.035 0.065 0.035 0.104 0 0.002-0 0.003-0 0.005v-0 0.070h0.209v-0.083c0-0.001 0-0.002 0-0.004 0-0.050-0.009-0.097-0.027-0.141l0.001 0.003c-0.017-0.044-0.041-0.082-0.071-0.114l0 0zM1.841 8.996c-0.065-0.055-0.149-0.088-0.24-0.089h-0c-0.043 0-0.086 0.008-0.126 0.023-0.087 0.031-0.156 0.096-0.193 0.177l-0.001 0.002c-0.021 0.049-0.032 0.103-0.031 0.157v0.776c-0.002 0.055 0.009 0.109 0.031 0.159 0.019 0.042 0.047 0.079 0.082 0.109 0.032 0.030 0.070 0.053 0.112 0.068s0.083 0.023 0.126 0.023c0.092-0 0.177-0.035 0.241-0.091l-0 0c0.034-0.030 0.061-0.067 0.080-0.109 0.022-0.050 0.032-0.104 0.031-0.159v-0.776c0-0.002 0-0.005 0-0.007 0-0.054-0.011-0.105-0.032-0.152l0.001 0.002c-0.020-0.044-0.047-0.082-0.080-0.113l-0-0zM1.742 10.042c0 0.004 0.001 0.008 0.001 0.012 0 0.039-0.016 0.075-0.042 0.1l-0 0c-0.027 0.023-0.062 0.036-0.1 0.036s-0.073-0.014-0.1-0.036l0 0c-0.026-0.025-0.043-0.061-0.043-0.1 0-0.004 0-0.009 0.001-0.013l-0 0.001v-0.776c-0-0.004-0-0.008-0-0.012 0-0.039 0.016-0.075 0.042-0.1l0-0c0.027-0.023 0.062-0.036 0.1-0.036s0.073 0.014 0.1 0.036l-0-0c0.026 0.025 0.043 0.061 0.043 0.1 0 0.004-0 0.009-0.001 0.013l0-0.001v0.777zM3.492 10.389v-1.47h-0.203l-0.267 0.778h-0.004l-0.269-0.778h-0.201v1.469h0.21v-0.894h0.004l0.205 0.632h0.105l0.207-0.632h0.004v0.894h0.21zM4.684 9.023c-0.032-0.036-0.073-0.064-0.119-0.080-0.043-0.015-0.093-0.023-0.144-0.023-0.003 0-0.006 0-0.008 0h-0.311v1.47h0.209v-0.574h0.108c0.066 0.003 0.13-0.011 0.189-0.040 0.048-0.027 0.087-0.065 0.114-0.111l0.001-0.001c0.024-0.039 0.041-0.083 0.048-0.128s0.011-0.1 0.011-0.154c0-0.005-0-0.009-0-0.014v0.001c0.002-0.070-0.005-0.141-0.020-0.21-0.015-0.053-0.042-0.098-0.077-0.135l0 0zM4.576 9.471c-0.001 0.028-0.008 0.054-0.020 0.078l0-0.001c-0.012 0.023-0.031 0.040-0.053 0.051l-0.001 0c-0.026 0.012-0.056 0.019-0.088 0.019-0.004 0-0.008-0-0.011-0l0.001 0h-0.096v-0.5h0.108c0.003-0 0.006-0 0.010-0 0.031 0 0.060 0.007 0.086 0.019l-0.001-0.001c0.022 0.013 0.039 0.031 0.049 0.053l0 0.001c0.012 0.026 0.018 0.054 0.018 0.082v0.098c0 0.034 0.002 0.070 0 0.101h-0.002zM5.676 8.919h-0.172l-0.324 1.47h0.21l0.061-0.316h0.285l0.062 0.316h0.209l-0.332-1.47zM5.483 9.873l0.103-0.533h0.004l0.102 0.533h-0.209zM7.029 9.805h-0.004l-0.316-0.885h-0.201v1.47h0.21v-0.884h0.004l0.32 0.884h0.197v-1.469h-0.209v0.885zM8.309 8.919l-0.169 0.585h-0.004l-0.169-0.585h-0.221l0.288 0.849v0.621h0.209v-0.621l0.288-0.848h-0.222zM0 10.804h0.101v0.283h0.068v-0.283h0.1v-0.058h-0.27v0.058zM0.848 10.746l-0.132 0.341h0.073l0.028-0.078h0.136l0.029 0.078h0.075l-0.136-0.341h-0.073zM0.838 10.952l0.046-0.127 0.046 0.127h-0.093zM1.687 10.961h0.079v0.044c-0.022 0.018-0.050 0.029-0.081 0.029h-0c-0.001 0-0.003 0-0.005 0-0.027 0-0.052-0.013-0.067-0.033l-0-0c-0.016-0.023-0.025-0.051-0.025-0.081 0-0.003 0-0.005 0-0.008l-0 0c0-0.076 0.033-0.114 0.098-0.114 0.002-0 0.005-0 0.007-0 0.034 0 0.062 0.023 0.070 0.054l0 0.001 0.067-0.013c-0.014-0.067-0.063-0.1-0.145-0.1-0.001-0-0.003-0-0.005-0-0.044 0-0.084 0.017-0.115 0.044l0-0c-0.031 0.030-0.050 0.072-0.050 0.118 0 0.004 0 0.009 0.001 0.013l-0-0.001c-0 0.002-0 0.005-0 0.008 0 0.046 0.017 0.088 0.044 0.12l-0-0c0.030 0.031 0.072 0.050 0.119 0.050 0.004 0 0.007-0 0.011-0l-0 0c0.002 0 0.004 0 0.006 0 0.054 0 0.103-0.021 0.139-0.055l-0 0v-0.134h-0.148v0.058zM2.544 10.746h-0.069v0.341h0.239v-0.058h-0.17v-0.283zM3.268 10.746h-0.069v0.341h0.069v-0.341zM3.976 10.974l-0.14-0.228h-0.067v0.341h0.064v-0.223l0.137 0.223h0.069v-0.341h-0.063v0.228zM4.616 10.937h0.17v-0.058h-0.17v-0.075h0.183v-0.058h-0.252v0.341h0.259v-0.058h-0.19v-0.092zM6.168 10.881h-0.134v-0.134h-0.068v0.341h0.068v-0.149h0.134v0.149h0.069v-0.341h-0.069v0.135zM6.812 10.937h0.171v-0.058h-0.171v-0.075h0.183v-0.058h-0.252v0.341h0.259v-0.058h-0.19v-0.092zM7.685 10.937c0.060-0.009 0.090-0.041 0.090-0.095 0-0.003 0.001-0.006 0.001-0.010 0-0.027-0.013-0.051-0.034-0.066l-0-0c-0.025-0.013-0.055-0.021-0.087-0.021-0.005 0-0.009 0-0.014 0.001l0.001-0h-0.145v0.341h0.069v-0.143h0.013c0.002-0 0.004-0 0.005-0 0.013 0 0.026 0.003 0.038 0.008l-0.001-0c0.010 0.006 0.018 0.015 0.024 0.025l0.074 0.108h0.082l-0.042-0.067c-0.019-0.033-0.044-0.061-0.075-0.081l-0.001-0.001zM7.616 10.89h-0.051v-0.086h0.054c0.004-0 0.009-0.001 0.014-0.001 0.020 0 0.039 0.003 0.056 0.009l-0.001-0c0.009 0.008 0.015 0.020 0.015 0.033 0 0.015-0.007 0.028-0.018 0.036l-0 0c-0.017 0.005-0.037 0.009-0.057 0.009-0.005 0-0.009-0-0.013-0l0.001 0zM8.343 10.937h0.17v-0.058h-0.17v-0.075h0.183v-0.058h-0.252v0.341h0.259v-0.058h-0.19v-0.092z"></path>
</svg>
