<!-- Generated by IcoMoon.io -->
<svg version="1.1" xmlns="http://www.w3.org/2000/svg" width="64" height="32" viewBox="0 0 64 32">
<title>logo_company2</title>
<path fill="#afb1b8" d="M1.354 8.916c0.007 0 0.013 0.003 0.017 0.007v0l0.044 0.046c-0.034 0.037-0.076 0.067-0.124 0.087-0.055 0.022-0.115 0.033-0.175 0.031-0.003 0-0.006 0-0.009 0-0.056 0-0.11-0.011-0.159-0.030l0.003 0.001c-0.095-0.038-0.169-0.114-0.203-0.208l-0.001-0.002c-0.018-0.047-0.028-0.101-0.028-0.158 0-0.002 0-0.004 0-0.006v0c-0-0.002-0-0.004-0-0.007 0-0.057 0.011-0.111 0.031-0.161l-0.001 0.003c0.019-0.047 0.048-0.091 0.085-0.127s0.082-0.064 0.132-0.083c0.054-0.020 0.112-0.030 0.169-0.029 0.054-0.001 0.108 0.008 0.158 0.027 0.043 0.018 0.083 0.043 0.118 0.074l-0.037 0.049c-0.003 0.004-0.006 0.007-0.009 0.009l-0 0c-0.004 0.002-0.008 0.004-0.013 0.004-0.001 0-0.001-0-0.002-0h0c-0.006-0-0.011-0.002-0.016-0.005l0 0-0.020-0.013-0.028-0.017c-0.025-0.013-0.054-0.023-0.085-0.029l-0.002-0c-0.018-0.003-0.039-0.005-0.060-0.005-0.002 0-0.004 0-0.006 0h0c-0.001-0-0.003-0-0.004-0-0.042 0-0.083 0.008-0.12 0.023l0.002-0.001c-0.037 0.015-0.069 0.036-0.096 0.062v0c-0.027 0.028-0.048 0.062-0.062 0.098-0.016 0.042-0.023 0.086-0.023 0.13-0.001 0.045 0.007 0.090 0.023 0.132 0.013 0.036 0.034 0.069 0.061 0.098 0.025 0.027 0.056 0.047 0.091 0.061 0.036 0.014 0.074 0.021 0.113 0.021 0.022 0 0.045-0.001 0.067-0.004 0.036-0.004 0.071-0.016 0.102-0.035 0.015-0.010 0.030-0.020 0.043-0.032 0.005-0.005 0.013-0.008 0.021-0.009h0zM2.621 8.685c0.001 0.055-0.009 0.111-0.030 0.163-0.019 0.049-0.047 0.091-0.083 0.126l-0 0c-0.036 0.035-0.079 0.063-0.127 0.082l-0.003 0.001c-0.050 0.019-0.107 0.029-0.167 0.029s-0.117-0.011-0.17-0.030l0.003 0.001c-0.050-0.020-0.093-0.048-0.129-0.083l0 0c-0.035-0.035-0.064-0.078-0.083-0.125l-0.001-0.002c-0.019-0.048-0.030-0.104-0.030-0.163s0.011-0.114 0.031-0.166l-0.001 0.003c0.019-0.048 0.047-0.091 0.083-0.128 0.036-0.034 0.079-0.061 0.126-0.079l0.003-0.001c0.050-0.019 0.107-0.030 0.167-0.030s0.117 0.011 0.17 0.031l-0.003-0.001c0.049 0.019 0.093 0.047 0.13 0.083s0.064 0.079 0.083 0.126c0.020 0.052 0.030 0.108 0.030 0.164zM2.506 8.685c0-0.002 0-0.004 0-0.007 0-0.044-0.008-0.087-0.022-0.126l0.001 0.003c-0.025-0.073-0.080-0.131-0.15-0.159l-0.002-0.001c-0.036-0.014-0.078-0.021-0.121-0.021s-0.085 0.008-0.124 0.022l0.002-0.001c-0.072 0.028-0.127 0.086-0.151 0.158l-0.001 0.002c-0.028 0.085-0.028 0.176 0 0.262 0.025 0.073 0.080 0.131 0.15 0.158l0.002 0.001c0.078 0.028 0.164 0.028 0.243 0 0.035-0.014 0.067-0.035 0.093-0.061 0.026-0.029 0.046-0.062 0.059-0.098 0.015-0.042 0.022-0.086 0.021-0.131zM3.486 8.822l0.012 0.029c0.004-0.010 0.008-0.020 0.013-0.029 0.005-0.012 0.010-0.021 0.015-0.030l-0.001 0.001 0.28-0.486c0.006-0.009 0.011-0.014 0.016-0.015s0.012-0.003 0.019-0.003c0.001 0 0.003 0 0.004 0h0.083v0.79h-0.098v-0.605c-0-0.004-0-0.009-0-0.014s0-0.010 0-0.014l-0 0.001-0.282 0.493c-0.004 0.008-0.009 0.014-0.016 0.018l-0 0c-0.007 0.004-0.015 0.006-0.023 0.006-0 0-0 0-0.001 0h-0.016c-0.009 0-0.017-0.002-0.024-0.006s-0.013-0.010-0.016-0.018l-0-0-0.29-0.496v0.634h-0.095v-0.788h0.083c0.001-0 0.003-0 0.004-0 0.007 0 0.013 0.001 0.019 0.003l-0.001-0c0.007 0.003 0.012 0.008 0.015 0.015l0 0 0.287 0.486c0.005 0.008 0.010 0.017 0.014 0.027l0 0.001zM4.541 8.783v0.296h-0.11v-0.788h0.245c0.003-0 0.006-0 0.009-0 0.045 0 0.089 0.006 0.131 0.018l-0.003-0.001c0.036 0.010 0.068 0.026 0.097 0.049 0.024 0.021 0.043 0.048 0.055 0.077 0.013 0.032 0.019 0.067 0.019 0.101s-0.006 0.069-0.020 0.101c-0.014 0.031-0.034 0.058-0.059 0.079l-0 0c-0.027 0.023-0.060 0.041-0.095 0.052l-0.002 0.001c-0.043 0.013-0.087 0.019-0.132 0.018l-0.133-0.002zM4.541 8.698h0.133c0.029 0 0.058-0.004 0.085-0.012 0.024-0.008 0.044-0.019 0.062-0.034l-0 0c0.016-0.014 0.029-0.031 0.037-0.051l0-0.001c0.008-0.019 0.013-0.041 0.013-0.065 0-0.001 0-0.001 0-0.002v0c0-0.002 0-0.005 0-0.008 0-0.020-0.004-0.040-0.012-0.057l0 0.001c-0.009-0.021-0.022-0.039-0.038-0.054l-0-0c-0.036-0.027-0.082-0.043-0.131-0.043-0.006 0-0.012 0-0.017 0.001l0.001-0h-0.133v0.325zM6.016 9.080h-0.087c-0.001 0-0.001 0-0.002 0-0.008 0-0.016-0.003-0.023-0.007l0 0c-0.006-0.005-0.011-0.011-0.014-0.018l-0-0-0.075-0.191h-0.375l-0.077 0.191c-0.003 0.007-0.008 0.013-0.014 0.018l-0 0c-0.006 0.005-0.015 0.008-0.023 0.008-0 0-0.001 0-0.001-0h-0.087l0.329-0.79h0.114l0.334 0.79zM5.473 8.786h0.309l-0.131-0.322c-0.009-0.020-0.017-0.045-0.024-0.070l-0.001-0.004-0.013 0.041c-0.004 0.014-0.008 0.025-0.013 0.036l0.001-0.003-0.13 0.321zM6.49 8.293c0.007 0.004 0.012 0.009 0.017 0.014l0.48 0.595v-0.613h0.098v0.79h-0.055c-0 0-0.001 0-0.001 0-0.008 0-0.015-0.002-0.021-0.005l0 0c-0.007-0.004-0.013-0.009-0.017-0.015l-0-0-0.48-0.595c0.001 0.009 0.001 0.018 0 0.027v0.587h-0.098v-0.79h0.058c0.007 0 0.013 0.001 0.020 0.004zM7.894 8.765v0.314h-0.11v-0.314l-0.303-0.476h0.098c0.001-0 0.001-0 0.002-0 0.008 0 0.016 0.003 0.022 0.007l-0-0c0.006 0.005 0.011 0.011 0.015 0.018l0 0 0.19 0.307c0.007 0.013 0.014 0.025 0.020 0.037s0.010 0.022 0.014 0.033l0.014-0.034c0.006-0.014 0.012-0.026 0.019-0.037l-0.001 0.001 0.187-0.309c0.004-0.006 0.009-0.012 0.014-0.017l0-0c0.006-0.005 0.013-0.008 0.022-0.008 0.001 0 0.001 0 0.002 0h0.099l-0.304 0.478zM3.432 6.964c0.048 0.006 0.096 0.011 0.145 0.015 0.74-0.316 1.367-0.832 1.801-1.485s0.656-1.413 0.64-2.186l-0.816-0.777c0.054 0.256 0.085 0.551 0.085 0.852 0 0.578-0.114 1.129-0.319 1.632l0.010-0.029c-0.313 0.783-0.848 1.468-1.545 1.978z"></path>
<path fill="#afb1b8" d="M3.14 6.928l0.022 0.004c0.745-0.508 1.314-1.218 1.632-2.036 0.18-0.448 0.284-0.968 0.284-1.512 0-0.372-0.049-0.732-0.14-1.075l0.007 0.029-1.162-1.107c0.364 0.687 0.577 1.502 0.577 2.366 0 0.201-0.012 0.399-0.034 0.594l0.002-0.024c-0.114 1.009-0.526 1.966-1.188 2.76zM7.082 4.221c-0.197 0.849-0.677 1.614-1.367 2.183-0.191 0.159-0.403 0.306-0.628 0.433l-0.021 0.011c0.585-0.166 1.091-0.446 1.515-0.817l-0.005 0.004c0.42-0.367 0.753-0.824 0.969-1.341l0.009-0.024-0.471-0.449z"></path>
<path fill="#afb1b8" d="M6.897 4.096l-0.671-0.639c-0.015 0.769-0.248 1.48-0.639 2.078l0.009-0.015c-0.4 0.622-0.967 1.13-1.642 1.473h0.003c0.151 0 0.301-0.009 0.451-0.026 0.645-0.253 1.19-0.641 1.619-1.132l0.004-0.005c0.417-0.476 0.72-1.062 0.861-1.708l0.005-0.026zM3.238 0.764l-0.801-0.764c-0.716 0.263-1.331 0.727-1.766 1.329s-0.669 1.316-0.671 2.046c0.003 0.808 0.288 1.591 0.811 2.227s1.253 1.087 2.076 1.283c0.734-0.852 1.164-1.905 1.227-3.006s-0.244-2.192-0.877-3.116zM8.747 3.978c-0.003-0.958-0.404-1.877-1.115-2.554s-1.675-1.060-2.681-1.062c-0.465-0-0.926 0.081-1.359 0.241l4.902 4.67c0.16-0.383 0.253-0.827 0.253-1.294 0-0 0-0 0-0v0z"></path>
</svg>
