<!-- Generated by IcoMoon.io -->
<svg version="1.1" xmlns="http://www.w3.org/2000/svg" width="64" height="32" viewBox="0 0 64 32">
<title>tagline</title>
<path fill="#afb1b8" d="M9.545 4.555c-0.077-0.11-0.123-0.247-0.123-0.395 0-0.016 0.001-0.031 0.002-0.046l-0 0.002v-0.636c0-0.195 0.041-0.343 0.121-0.445s0.219-0.152 0.416-0.151c0.185 0 0.316 0.043 0.393 0.13 0.084 0.11 0.126 0.245 0.116 0.381v0.149h-0.33v-0.151c0-0.006 0-0.013 0-0.020 0-0.045-0.004-0.090-0.010-0.133l0.001 0.005c-0.005-0.035-0.022-0.066-0.047-0.088l-0-0c-0.029-0.022-0.066-0.035-0.106-0.035-0.005 0-0.010 0-0.015 0.001l0.001-0c-0.004-0-0.009-0.001-0.014-0.001-0.042 0-0.081 0.014-0.113 0.037l0.001-0c-0.028 0.025-0.047 0.058-0.054 0.096l-0 0.001c-0.010 0.052-0.014 0.105-0.013 0.157v0.772c-0.001 0.009-0.001 0.019-0.001 0.030 0 0.068 0.016 0.133 0.044 0.19l-0.001-0.002c0.017 0.023 0.039 0.041 0.065 0.052l0.001 0c0.019 0.008 0.042 0.013 0.065 0.013 0.007 0 0.014-0 0.021-0.001l-0.001 0c0.004 0 0.009 0.001 0.014 0.001 0.039 0 0.075-0.013 0.104-0.036l-0 0c0.026-0.024 0.044-0.057 0.049-0.093l0-0.001c0.008-0.051 0.011-0.103 0.010-0.155v-0.157h0.33v0.143c0.001 0.012 0.001 0.025 0.001 0.039 0 0.135-0.043 0.261-0.117 0.363l0.001-0.002c-0.076 0.095-0.205 0.142-0.395 0.142s-0.334-0.050-0.415-0.155zM10.92 4.562c-0.083-0.099-0.125-0.243-0.125-0.434v-0.669c0-0.189 0.042-0.332 0.125-0.429s0.223-0.146 0.418-0.145c0.194 0 0.333 0.048 0.416 0.145s0.126 0.24 0.126 0.429v0.669c0 0.189-0.043 0.334-0.127 0.434s-0.223 0.149-0.415 0.149c-0.192 0-0.334-0.050-0.418-0.149zM11.492 4.401c0.030-0.062 0.044-0.13 0.040-0.198v-0.819c0-0.007 0.001-0.014 0.001-0.022 0-0.063-0.015-0.122-0.041-0.174l0.001 0.002c-0.017-0.023-0.040-0.042-0.066-0.053l-0.001-0c-0.019-0.008-0.041-0.013-0.065-0.013-0.008 0-0.016 0.001-0.023 0.002l0.001-0c-0.007-0.001-0.014-0.002-0.022-0.002-0.024 0-0.046 0.005-0.066 0.013l0.001-0c-0.028 0.012-0.050 0.030-0.067 0.053l-0 0c-0.030 0.060-0.044 0.127-0.040 0.194v0.823c-0.004 0.068 0.009 0.136 0.040 0.198 0.019 0.021 0.042 0.037 0.068 0.049l0.001 0c0.025 0.011 0.054 0.017 0.085 0.017s0.060-0.006 0.086-0.018l-0.001 0.001c0.027-0.012 0.050-0.028 0.069-0.049l0-0v-0.004zM12.277 2.903h0.356l0.267 1.235 0.274-1.235h0.346l0.035 1.783h-0.255l-0.027-1.239-0.264 1.239h-0.205l-0.274-1.243-0.025 1.243h-0.259l0.032-1.782zM13.953 2.903h0.554c0.319 0 0.479 0.169 0.479 0.506 0 0.323-0.168 0.484-0.504 0.484h-0.188v0.792h-0.342l0.002-1.782zM14.426 3.665c0.034 0.004 0.068 0.001 0.1-0.009s0.063-0.026 0.088-0.048c0.039-0.060 0.057-0.131 0.049-0.201 0-0.006 0-0.013 0-0.021 0-0.050-0.006-0.099-0.017-0.145l0.001 0.004c-0.005-0.019-0.014-0.035-0.025-0.049l0 0c-0.012-0.015-0.026-0.027-0.043-0.035l-0.001-0c-0.039-0.018-0.086-0.029-0.134-0.029-0.006 0-0.013 0-0.019 0.001l0.001-0h-0.133v0.532h0.133zM15.479 2.903h0.367l0.377 1.783h-0.319l-0.074-0.411h-0.327l-0.077 0.411h-0.323l0.377-1.782zM15.792 4.069l-0.128-0.748-0.128 0.748h0.256zM16.527 2.903h0.239l0.458 1.017v-1.017h0.284v1.782h-0.228l-0.461-1.062v1.062h-0.293l0.001-1.782zM18.172 4.006l-0.381-1.1h0.321l0.233 0.707 0.218-0.707h0.314l-0.376 1.1v0.68h-0.328v-0.68zM10.073 5.465v0.093h-0.279v0.724h-0.117v-0.724h-0.28v-0.093h0.676zM10.947 6.283h-0.090c-0.001 0-0.002 0-0.003 0-0.009 0-0.017-0.003-0.023-0.008l0 0c-0.007-0.005-0.012-0.011-0.015-0.019l-0-0-0.081-0.194h-0.387l-0.081 0.194c-0.002 0.009-0.007 0.016-0.012 0.022l0-0c-0.006 0.005-0.015 0.008-0.023 0.008-0.001 0-0.001-0-0.002-0h-0.090l0.342-0.817h0.119l0.346 0.814zM10.381 5.979h0.323l-0.137-0.333c-0.009-0.021-0.017-0.046-0.024-0.072l-0.001-0.004-0.013 0.043-0.012 0.034-0.135 0.332zM11.536 6.203c0.021 0.001 0.043 0.001 0.064 0 0.019-0.002 0.037-0.005 0.055-0.010 0.019-0.005 0.036-0.010 0.052-0.016l-0.003 0.001c0.015-0.006 0.030-0.013 0.046-0.020v-0.184h-0.137c-0 0-0.001 0-0.002 0-0.007 0-0.012-0.002-0.017-0.006l0 0c-0.004-0.003-0.007-0.008-0.007-0.014 0-0 0-0.001 0-0.001v0-0.063h0.265v0.313c-0.041 0.028-0.089 0.051-0.141 0.066l-0.004 0.001c-0.024 0.007-0.053 0.013-0.083 0.017l-0.003 0c-0.030 0.003-0.064 0.005-0.099 0.005-0 0-0.001 0-0.001 0h0c-0.001 0-0.002 0-0.004 0-0.061 0-0.118-0.011-0.172-0.032l0.003 0.001c-0.053-0.020-0.098-0.049-0.137-0.086l0 0c-0.037-0.036-0.067-0.079-0.087-0.127l-0.001-0.003c-0.020-0.049-0.032-0.105-0.032-0.164 0-0.002 0-0.004 0-0.006v0c-0-0.002-0-0.003-0-0.005 0-0.060 0.011-0.117 0.032-0.169l-0.001 0.003c0.020-0.048 0.050-0.092 0.088-0.129s0.086-0.066 0.137-0.085c0.058-0.021 0.121-0.031 0.183-0.030 0.032 0 0.064 0.002 0.095 0.007 0.028 0.004 0.055 0.011 0.082 0.021 0.024 0.009 0.047 0.019 0.068 0.032s0.041 0.027 0.060 0.043l-0.033 0.051c-0.003 0.005-0.006 0.008-0.011 0.011l-0 0c-0.004 0.003-0.010 0.004-0.016 0.004h-0c-0.008-0-0.015-0.003-0.021-0.006l0 0c-0.013-0.007-0.024-0.013-0.035-0.020l0.002 0.001c-0.013-0.008-0.028-0.015-0.044-0.021l-0.002-0.001c-0.018-0.007-0.039-0.013-0.060-0.018l-0.003-0c-0.025-0.005-0.053-0.007-0.082-0.007-0.002 0-0.003 0-0.005 0h0c-0.001 0-0.003-0-0.004-0-0.046 0-0.090 0.008-0.13 0.023l0.003-0.001c-0.038 0.014-0.073 0.036-0.1 0.065-0.028 0.029-0.050 0.064-0.064 0.102-0.014 0.041-0.023 0.087-0.023 0.136s0.008 0.096 0.024 0.139l-0.001-0.003c0.015 0.038 0.038 0.074 0.068 0.103 0.028 0.028 0.062 0.050 0.1 0.065 0.044 0.014 0.090 0.020 0.135 0.016zM12.626 6.19h0.373v0.093h-0.487v-0.817h0.117l-0.003 0.724zM13.388 6.283h-0.117v-0.817h0.117v0.817zM13.823 5.469c0.007 0.004 0.013 0.009 0.018 0.015l0 0 0.5 0.616c-0-0.004-0.001-0.009-0.001-0.015s0-0.010 0.001-0.015l-0 0.001v-0.609h0.102v0.821h-0.059c-0.001 0-0.003 0-0.004 0-0.008 0-0.015-0.002-0.022-0.005l0 0c-0.007-0.004-0.013-0.009-0.018-0.015l-0-0-0.499-0.615v0.636h-0.098v-0.817h0.061c0.007 0 0.013 0.001 0.019 0.004zM15.303 5.465v0.090h-0.414v0.27h0.336v0.087h-0.336v0.279h0.414v0.090h-0.535v-0.816h0.535zM3.051 0.417l5.191 1.395v4.89l-5.191-1.395v-4.891zM2.719 0v5.545l5.857 1.575v-5.545l-5.857-1.575z"></path>
<path fill="#afb1b8" d="M5.857 9.694l-5.857-1.576v-5.545l5.857 1.575v5.545z"></path>
<path fill="#afb1b8" d="M2.816 0.354l5.124 1.378-2.179 2.063-5.124-1.379 2.18-2.063zM2.719 0l-2.719 2.573 5.857 1.575 2.718-2.573-5.857-1.575zM6.187 9.382l2.388-2.261-2.388-0.643v2.904z"></path>
</svg>
